<?xml version="1.0" encoding="utf-8"?>
<!-- Generator: Adobe Illustrator 16.0.0, SVG Export Plug-In . SVG Version: 6.00 Build 0)  -->
<!DOCTYPE svg PUBLIC "-//W3C//DTD SVG 1.1//EN" "http://www.w3.org/Graphics/SVG/1.1/DTD/svg11.dtd">
<svg version="1.1" id="Layer_1" xmlns="http://www.w3.org/2000/svg" xmlns:xlink="http://www.w3.org/1999/xlink" x="0px" y="0px"
	 width="435.154px" height="438.2px" viewBox="0 0 435.154 438.2" enable-background="new 0 0 435.154 438.2" xml:space="preserve">
<g>
	<path fill-rule="evenodd" clip-rule="evenodd" fill="#030303" d="M229.666,416.149c-40.158,0.001-80.315,0.011-120.474-0.004
		c-15.245-0.005-24.027-6.968-26.514-22.127c-4.146-25.268-7.767-50.621-11.61-75.938c-5.491-36.166-10.985-72.332-16.477-108.498
		c-0.2-1.317-0.419-2.631-0.58-3.953c-1.057-8.699-0.846-9.027,8.15-10.5c13.324-2.183,26.775-3.175,40.234-3.984
		c8.644-0.52,17.301-0.955,25.958-1.064c3.409-0.043,4.052-1.253,4.075-4.396c0.126-17.323-0.748-34.66,0.498-51.968
		c3.025-42.031,37.036-79.504,78.659-86.729c53.812-9.341,102.176,22.925,114.061,76.137c1.937,8.668,2.078,17.501,2.065,26.337
		c-0.018,11.664,0.204,23.334-0.113,34.989c-0.117,4.299,0.906,5.58,5.391,5.702c21.468,0.583,42.928,1.55,64.195,4.884
		c0.329,0.052,0.666,0.052,0.993,0.111c8.877,1.59,9.202,1.806,7.86,10.71c-5.8,38.475-11.725,76.931-17.591,115.396
		c-3.761,24.659-7.39,49.338-11.292,73.974c-2.091,13.2-11.472,20.896-25.015,20.908
		C311.315,416.172,270.49,416.149,229.666,416.149z M229.736,188.155c26.482-0.286,52.955,0.337,79.424,1.063
		c3.826,0.105,4.715-0.917,4.643-4.64c-0.244-12.652-0.075-25.313-0.099-37.97c-0.014-7.501-0.359-14.993-2.121-22.313
		c-10.274-42.704-48.864-69.536-92.454-64.346c-38.208,4.55-69.047,36.617-72.192,75.129c-1.316,16.127-0.154,32.295-0.687,48.431
		c-0.144,4.374,0.771,5.866,5.563,5.719C177.778,188.435,203.754,187.874,229.736,188.155z"/>
	<path fill-rule="evenodd" clip-rule="evenodd" fill="#131313" d="M54.329,119.427c-5.898-8.188-12.592-15.159-21.389-19.931
		c-1.166-0.632-2.438-1.09-3.548-1.804c-4.897-3.15-7.371-8.809-6.059-13.68c1.332-4.948,6.167-8.527,11.968-8.985
		c5.998-0.473,11.556,1.157,16.86,3.647c4.326,2.031,8.47,4.45,13.229,6.982c-0.983-6.201-1.974-11.977-2.796-17.777
		c-0.844-5.949-1.307-11.964,0.072-17.865c1.92-8.21,7.667-10.479,14.448-5.471C87.813,52.444,93.218,63.708,96.1,76.359
		c2.347,10.301,2.55,20.785,2.489,31.286c-0.018,3.15-0.003,6.3-0.003,9.436c1.942,0.714,2.785-0.933,3.957-1.614
		c3.727-2.166,7.623-3.205,11.941-2.545c6.899,1.053,9.918,5.125,8.801,11.903c-2.264,13.728-1.008,27.582-1.478,42.453
		c-3.091-4.699-3.115-9.251-3.611-13.614c-0.552-4.849,0.877-9.594,1.084-14.413c0.151-3.498,0.202-6.964-0.917-10.363
		c-2.466-7.497-6.366-8.822-12.587-4.177c-1.199,0.895-2.287,1.936-3.472,2.85c-6.219,4.796-11.718,2.814-12.765-5.069
		c-0.718-5.407-0.432-10.965-0.387-16.453c0.096-11.685-0.215-23.308-4.127-34.501c-2.618-7.49-6.597-14.056-13.863-19.789
		c-0.039,20.639,5.616,39.302,10.685,59.099c-6.517-5.184-12.082-9.838-17.888-14.17c-6.939-5.179-14.17-9.915-22.828-11.833
		c-0.811-0.18-1.612-0.492-2.429-0.538c-2.338-0.131-5.28-0.438-6.033,2.193c-0.713,2.49,2.045,3.449,3.93,4.422
		c10.3,5.317,18.372,13.101,24.847,22.587c1.479,2.167,2.782,4.602,3.507,7.104c1.774,6.129-2.1,10.613-8.291,9.126
		c-4.46-1.071-5.148,1.186-5.039,4.248c0.282,7.931,3.103,14.456,10.661,18.355c10.808,5.576,18.028,14.468,22.759,25.529
		c1.094,2.558,1.347,3.988-2.437,4.314c-4.178,0.36-6.357-0.577-8.284-4.607c-3.66-7.652-9.635-13.313-17.223-17.45
		c-10.714-5.842-15.126-15.567-14.844-27.388C42.439,125.131,46.185,121.308,54.329,119.427z"/>
	<path fill-rule="evenodd" clip-rule="evenodd" fill="#131313" d="M112.301,180.035c-2.775,0.819-4.277-0.527-5.433-3.562
		c-4.608-12.102-10.089-23.831-16.908-34.851c-2.973-4.803,1.869-4.469,3.518-6.161c2.24-2.299,3.444-0.765,4.698,1.395
		c7.009,12.068,13.059,24.585,18.099,37.599C118.364,179.851,118.418,179.83,112.301,180.035z"/>
	<path fill-rule="evenodd" clip-rule="evenodd" fill="#F6F6F7" d="M229.736,188.153c-25.982-0.279-51.958,0.282-77.923,1.076
		c-4.792,0.146-5.707-1.345-5.563-5.719c0.532-16.136-0.63-32.304,0.687-48.431c3.145-38.512,33.984-70.58,72.192-75.129
		c43.59-5.19,82.18,21.642,92.454,64.346c1.762,7.32,2.107,14.813,2.121,22.313c0.023,12.657-0.146,25.317,0.099,37.97
		c0.072,3.723-0.816,4.745-4.643,4.64C282.691,188.492,256.219,187.869,229.736,188.153z M216.173,177.881
		c-2.166-7.933-2.166-7.933-1.111-12.55c2.634-11.535-2.741-18.594-14.615-19.229c-6.647-0.355-12.758,1.688-18.821,4.052
		c-7.377,2.877-9.243,1.605-8.931-6.418c0.208-5.335,0.314-10.642-0.562-15.919c-1.002-6.04-3.08-11.562-7.813-16.213
		c-2.615,4.889-4.165,9.598-5.265,14.446c-3.731,16.442-1.313,33.144-2.04,49.714c-0.137,3.118,1.925,2.446,3.635,2.43
		c9.483-0.085,18.965-0.245,28.448-0.302C198.041,177.839,206.985,177.881,216.173,177.881z"/>
	<path fill-rule="evenodd" clip-rule="evenodd" fill="#131313" d="M216.173,177.881c-9.188,0-18.132-0.042-27.075,0.011
		c-9.483,0.057-18.965,0.216-28.448,0.302c-1.71,0.016-3.772,0.688-3.635-2.43c0.728-16.57-1.691-33.272,2.04-49.714
		c1.1-4.848,2.65-9.558,5.265-14.446c4.733,4.651,6.811,10.173,7.813,16.213c0.875,5.277,0.769,10.584,0.562,15.919
		c-0.312,8.023,1.554,9.295,8.931,6.418c6.063-2.364,12.174-4.408,18.821-4.052c11.874,0.635,17.249,7.694,14.615,19.229
		C214.007,169.948,214.007,169.948,216.173,177.881z"/>
</g>
</svg>
